<svg data-v-0dd9719b="" version="1.0" xmlns="http://www.w3.org/2000/svg" xmlns:xlink="http://www.w3.org/1999/xlink" width="100%" height="100%" viewBox="0 0 340.000000 250.000000" preserveAspectRatio="xMidYMid meet" color-interpolation-filters="sRGB" style="margin: auto;"> <rect data-v-0dd9719b="" x="0" y="0" width="100%" height="100%" fill="#ffffff" fill-opacity="1" class="background"></rect> <rect data-v-0dd9719b="" x="0" y="0" width="100%" height="100%" fill="url(#watermark)" fill-opacity="1" class="watermarklayer"></rect> <g data-v-0dd9719b="" fill="#0a0619" class="icon-text-wrapper icon-svg-group iconsvg" transform="translate(48.44499969482422,95.99992370605469)"><g class="iconsvg-imagesvg" transform="translate(0,0)" mask="url(#8867e9fb-4e31-4e14-8471-92893b050e6d)"><g><rect fill="#0a0619" fill-opacity="0" stroke-width="2" x="0" y="0" width="60" height="58.00015466707911" class="image-rect"></rect> <svg filter="url(#colors753583455)" x="0" y="0" width="60" height="58.00015466707911" filtersec="colorsf1506155152" class="image-svg-svg primary" style="overflow: visible;"><svg xmlns="http://www.w3.org/2000/svg" xmlns:xlink="http://www.w3.org/1999/xlink" version="1.1" x="0px" y="0px" viewBox="0 0 479.9990234375 464" xml:space="preserve"><g><path d="M167.878,351.999H168c0.001,0,0.004,0,0.005,0c9.873,0,19.689-1.375,29.181-4.087l83.081-23.737   c6.452-1.843,11.873-6.342,14.873-12.343l33.705-67.409l14.311,7.155l-16.794,33.588c6.397,17.542,9.638,35.895,9.638,54.612V352   h79.033c-6.174-47.921-23.472-94.236-50.287-134.458l-5.57-8.355C352.002,198.425,339.997,192,327.063,192   c-15.63,0-29.614,9.323-35.626,23.751l-29.385,70.523l-70.51,26.441l-12.363-6.182c-3.315-1.657-7.027-2.534-10.733-2.534h-0.484   C154.75,304,144,314.82,144,328.119C144,341.285,154.712,351.998,167.878,351.999z"></path><path d="M320,110.627C320,102.562,313.438,96,305.373,96c-3.907,0-7.581,1.521-10.343,4.284l-19.364,19.364l-8.178-32.711   c-1.021-4.084-4.674-6.937-8.884-6.937c-3.491,0-6.629,1.939-8.191,5.062l-16.222,32.443l-12.535-12.535   c-0.74-0.74-1.441-1.507-2.124-2.287c-4.938,5.168-8.778,11.277-11.302,18.036l8.16,48.959   C220.091,191.883,239.116,208,261.627,208c5.86,0,11.59-1.104,17.032-3.28l0.426-0.17c7.349-13.576,19.987-23.257,34.725-26.922   c-8.055-12.102-14.051-25.601-17.572-39.686l-1.796-7.187l14.547-4.849C315.575,123.709,320,117.57,320,110.627z"></path><path d="M112,398.111c0,6.55,2.985,12.557,8,16.475c5.015-3.918,8-9.925,8-16.475V240h-16V398.111z"></path><path d="M176.124,80c0.489-7.616,2.504-15.144,5.916-21.968l2.804-5.61l14.312,7.155l-2.805,5.61   C193.504,70.88,192,77.253,192,83.617c0,7.667,2.08,15.014,5.972,21.398c3.481-6.097,7.883-11.618,13.073-16.409   C209.053,83.372,208,77.768,208,72c0-12.455,4.85-24.164,13.657-32.97l4.687-4.687l11.313,11.313l-4.687,4.687   C227.186,56.128,224,63.819,224,72c0,6.632,2.093,12.942,5.968,18.175l6.134-12.269C240.392,69.329,249.014,64,258.604,64   c11.564,0,21.601,7.836,24.406,19.056l1.327,5.31C290.046,82.964,297.481,80,305.373,80C322.261,80,336,93.739,336,110.627   c0,13.84-8.821,26.079-21.951,30.456l-0.253,0.084c4.104,12.707,10.526,24.693,18.835,35.139c1.826,0.186,3.631,0.458,5.412,0.822   l7.607-53.248l17.417,8.708c3.277-12.353,4.934-25.058,4.934-37.887V80h12.734c-6.005-12.998-16.827-23.421-30.331-28.823   l-20.639-8.255l19.549-19.549C336.525,8.657,317.724,0,298.111,0h-0.223c-10.468,0-20.949,2.474-30.311,7.155l-2.964,1.482   L246.94,2.746C241.474,0.924,235.78,0,230.018,0c-20.4,0-38.741,11.335-47.864,29.582l-2.099,4.197   c-7.839,15.679-19.152,29.41-32.978,40.105c3.856,3.869,9.13,6.116,14.812,6.116H176.124z"></path><path d="M32,400c-8.822,0-16,7.178-16,16v40c0,4.411,3.589,8,8,8h24v-48C48,407.178,40.822,400,32,400z"></path><path d="M380.838,432H376c-13.234,0-24-10.766-24-24c0-16.688-9.272-31.692-24.199-39.156l-0.644-0.322l-146.313,39.904   C168.571,411.773,160,422.994,160,435.714C160,451.311,172.688,464,188.285,464c2.278,0,4.59-0.08,6.872-0.236l172.425-11.892   c8.345-0.576,16.299-3.112,23.346-7.388c-1.137-2.368-2.141-4.823-2.988-7.365C386.919,434.057,384.065,432,380.838,432z"></path><path d="M162.128,400h-18.193c-0.667,13.318-8.327,25.14-20.357,31.155L120,432.944l-3.578-1.789   c-12.03-6.015-19.69-17.837-20.357-31.155h-36.37C62.427,404.711,64,410.173,64,416v48h90.24   c-6.389-7.678-10.24-17.539-10.24-28.285C144,421.332,151.001,408.175,162.128,400z"></path><path d="M476.759,444.686c-26.771-8.924-44.759-33.88-44.759-62.1V376c0-4.411-3.589-8-8-8h-71.304   C362.412,378.762,368,392.871,368,408c0,4.411,3.589,8,8,8h4.838c10.125,0,19.08,6.454,22.281,16.06   c6.369,19.104,24.177,31.94,44.315,31.94c9.252,0,18.212-2.713,25.911-7.845l4.544-3.029c1.321-0.881,2.11-2.355,2.11-3.943   C480,447.139,478.697,445.332,476.759,444.686z"></path><path d="M80,326.833C80,314.243,69.757,304,57.167,304h-7.111C40.1,304,32,295.9,32,285.944c0-6.051,3.005-11.667,8.04-15.023   l29.436-19.624C76.066,246.904,80,239.553,80,231.633C80,218.602,69.398,208,56.367,208H24.971c-4.946,0-8.971-4.024-8.971-8.971   c0-2.396,0.933-4.649,2.627-6.343l3.029-3.029l-11.313-11.313l-3.029,3.029C2.598,186.089,0,192.359,0,199.029   C0,212.798,11.202,224,24.971,224h31.396c4.209,0,7.633,3.424,7.633,7.633c0,2.558-1.271,4.933-3.399,6.352l-29.436,19.624   C21.669,263.939,16,274.532,16,285.944C16,304.723,31.277,320,50.056,320h7.111c3.768,0,6.833,3.065,6.833,6.833   c0,2.604-1.447,4.946-3.777,6.111l-7.801,3.9l7.155,14.311l7.801-3.9C75.164,343.362,80,335.537,80,326.833z"></path><path d="M44.622,155.255l7.801,3.9l7.155-14.311l-7.8-3.9c-2.33-1.165-3.777-3.507-3.777-6.111c0-3.768,3.065-6.833,6.833-6.833   h46.571c5.843,0,10.596,4.753,10.596,10.597c0,4.568-2.912,8.608-7.246,10.053l-27.998,9.333C69.126,160.525,64,167.637,64,175.68   c0,8.576,5.811,16.019,14.131,18.099l8.407,2.102C92.109,197.273,96,202.257,96,208h16c0-13.099-8.875-24.465-21.582-27.642   l-8.406-2.102C80.827,177.961,80,176.901,80,175.68c0-1.145,0.729-2.157,1.816-2.52l27.998-9.333   C120.691,160.202,128,150.063,128,138.596C128,123.931,116.069,112,101.404,112H54.833C42.243,112,32,122.243,32,134.833   C32,143.537,36.836,151.362,44.622,155.255z"></path></g></svg></svg> <defs><filter id="colors753583455"><feColorMatrix type="matrix" values="0 0 0 0 0.0390625  0 0 0 0 0.0234375  0 0 0 0 0.09765625  0 0 0 1 0" class="icon-fecolormatrix"></feColorMatrix></filter> <filter id="colorsf1506155152"><feColorMatrix type="matrix" values="0 0 0 0 0.99609375  0 0 0 0 0.99609375  0 0 0 0 0.99609375  0 0 0 1 0" class="icon-fecolormatrix"></feColorMatrix></filter> <filter id="colorsb1866252543"><feColorMatrix type="matrix" values="0 0 0 0 0  0 0 0 0 0  0 0 0 0 0  0 0 0 1 0" class="icon-fecolormatrix"></feColorMatrix></filter></defs></g><rect v-gra="id" width="72" height="70.00015258789062" transform="translate(-6, -6)" style="pointer-events:none;" fill="url(#thEV7w_VlUUUY97MkSbuh)"></rect></g> <g transform="translate(67,5.303827285766602)"><g data-gra="path-name" fill-rule="" class="tp-name iconsvg-namesvg" transform="translate(0,0)"><g transform="scale(1)"><g><path d="M4.61-24.23L12.31-21.82 12.31-25.7 4.61-28.12ZM3.42-15.3L10.94-12.96 10.94-16.85 3.42-19.19ZM3.24 3.6L7.88 3.6C10.04-1.22 11.09-5.18 11.81-10.01L7.49-10.01C6.7-5.18 5.51-1.22 3.24 3.6ZM30.89-10.37L18.11-10.37C16.38-10.37 15.23-9.22 15.23-7.49L15.23 0C15.23 1.73 16.38 2.88 18.11 2.88L30.89 2.88C32.62 2.88 33.77 1.73 33.77 0L33.77-7.49C33.77-9.22 32.62-10.37 30.89-10.37ZM20.16-6.77L28.84-6.77C29.2-6.77 29.38-6.59 29.38-6.23L29.38-1.26C29.38-0.9 29.2-0.72 28.84-0.72L20.16-0.72C19.8-0.72 19.62-0.9 19.62-1.26L19.62-6.23C19.62-6.59 19.8-6.77 20.16-6.77ZM29.12-15.98C31.32-17.68 32.83-19.62 33.77-21.71 34.16-22.61 34.38-23.69 34.24-24.44 33.98-25.88 33.01-26.6 31.39-26.6L21.35-26.6C21.56-27.32 21.78-28.04 21.92-28.8L17.5-28.8C16.81-25.74 15.41-23.15 12.82-20.84L13.9-16.78C15.37-17.75 16.6-18.79 17.64-19.94 18.61-18.5 19.69-17.24 20.95-16.13 18.43-15.16 15.48-14.44 11.92-14.08L12.96-10.08C17.82-10.84 21.71-11.99 24.8-13.43 27.83-11.74 31.5-10.62 35.86-9.94L36.9-14.08C34.02-14.44 31.43-15.08 29.12-15.98ZM24.95-18.18C23.29-19.3 21.92-20.59 20.81-22.07L19.26-22.07C19.48-22.39 19.66-22.68 19.84-23L29.66-23C28.55-21.2 27-19.55 24.95-18.18ZM58 2.77L69.3 2.77C70.96 2.77 71.86 1.76 71.86-0.11L71.86-24.62C71.86-26.5 70.96-27.5 69.3-27.5L58-27.5C56.34-27.5 55.44-26.5 55.44-24.62L55.44-0.11C55.44 1.76 56.34 2.77 58 2.77ZM67.82-10.91L67.82-1.37C67.82-1.04 67.64-0.83 67.36-0.83L59.98-0.83C59.69-0.83 59.51-1.04 59.51-1.37L59.51-10.91ZM67.82-14.58L59.51-14.58 59.51-23.36C59.51-23.69 59.69-23.9 59.98-23.9L67.36-23.9C67.64-23.9 67.82-23.69 67.82-23.36ZM46.22-4.07L46.48-3.24C47.16-3.17 48.46-3.1 49.1-3.1 51.91-3.1 53.71-4.43 53.71-7.99 53.71-10.8 53.06-13.86 51.37-16.13L53.53-23.83C53.71-24.48 53.89-25.2 53.82-26.03 53.71-27.5 52.99-28.08 51.41-28.08L44.6-28.08C43.02-28.08 42.19-27.32 42.19-25.88L42.19 3.64 46.22 3.64ZM46.22-6.66L46.22-24.23C46.22-24.48 46.33-24.59 46.62-24.59L49.64-24.59 47.77-16.52C47.63-15.84 47.7-15.23 48.06-14.58 49.03-12.89 49.72-10.3 49.72-8.03 49.72-6.88 49.14-6.59 48.24-6.59 47.81-6.59 46.94-6.62 46.22-6.66ZM104.04-18.76L107.03-18.76 107.03-23.29C107.03-25.02 105.88-26.17 104.15-26.17L93.96-26.17 93.96-28.8 89.64-28.8 89.64-26.17 79.42-26.17C77.69-26.17 76.54-25.02 76.54-23.29L76.54-19.15 80.86-19.15 80.86-22.03C80.86-22.36 81.07-22.57 81.4-22.57L102.17-22.57C102.49-22.57 102.71-22.36 102.71-22.03L102.71-19.4C99.47-18.86 95.18-18.58 91.58-18.58L78.41-18.58 78.91-14.83 87.26-14.83 87.26-10.62 75.67-10.08 75.96-6.34 87.26-6.84 87.26-1.98C87.26 0.9 88.7 2.38 91.55 2.66 95.62 3.06 98.86 3.1 102.85 2.66 105.52 2.38 107.14 0.72 107.14-1.48L107.14-4.97 102.74-5.54 102.74-2.84C102.74-1.87 102.13-1.26 100.94-1.08 98.32-0.68 96.34-0.76 93.46-1.08 92.23-1.22 91.66-1.8 91.66-3.1L91.66-7.02 107.75-7.74 107.75-11.59 91.66-10.84 91.66-14.83 91.69-14.83C96.41-14.83 100.08-15.12 104.04-15.91ZM127.69-16.06L129.49-6.55 133.49-6.55 131.69-16.06ZM115.85 0.65L122.94 0.65C124.45 0.65 125.46-0.36 125.46-1.87L125.46-24.41C125.46-25.92 124.45-26.93 122.94-26.93L115.85-26.93C114.34-26.93 113.33-25.92 113.33-24.41L113.33-1.87C113.33-0.36 114.34 0.65 115.85 0.65ZM141.26-19.22L144.86-19.22 144.86-22.97 141.26-22.97 141.26-28.8 136.94-28.8 136.94-22.97 126.5-22.97 126.86-19.22 136.94-19.22 136.94-2.23C136.94-1.08 136.22-0.47 135-0.4 133.2-0.29 131.26-0.47 129.56-0.83L130.54 3.02C132.84 3.46 134.82 3.42 136.84 3.38 139.25 3.35 141.26 1.48 141.26-0.83ZM121.5-11.66L121.5-3.49C121.5-3.17 121.28-2.95 120.96-2.95L117.83-2.95C117.5-2.95 117.29-3.17 117.29-3.49L117.29-11.66ZM121.5-15.12L117.29-15.12 117.29-22.79C117.29-23.11 117.5-23.33 117.83-23.33L120.96-23.33C121.28-23.33 121.5-23.11 121.5-22.79ZM171.04-27.47L173.02-20.92 177.26-20.92 175.28-27.47ZM169.81-14.62L179.35-15.62 179.35-19.37 169.27-18.32C169.24-18.58 169.2-18.86 169.16-19.15L167.94-28.8 163.44-28.8 164.59-19.01C164.63-18.61 164.7-18.22 164.74-17.82L158.04-17.14 158.51-13.39 165.28-14.11C166.1-9.04 167.22-4.46 168.59-0.47 169.52 2.23 171.68 3.53 174.13 3.53 175.57 3.53 177.16 3.24 178.63 2.52L179.35-2.34C175.9-0.32 173.3-0.68 172.66-2.63 171.47-6.12 170.53-10.26 169.81-14.62ZM150.98-16.24C155.12-19.3 157.61-23.62 158.87-28.8L154.3-28.8C153.29-24.98 150.8-20.84 146.88-17.57L148.21-13.5 151.52-13.5 151.52 3.6 155.92 3.6 155.92-13.72C155.92-15.34 155.02-16.24 153.4-16.24Z" transform="translate(-3.240000009536743, 28.799999237060547)"></path></g> <!----> <!----> <!----> <!----> <!----> <!----> <!----></g></g> <g data-gra="path-slogan" fill-rule="" class="tp-slogan iconsvg-slogansvg" fill="#0a0619" transform="translate(5,38.439998626708984)"><rect x="0" height="1" y="3.9750003814697266" width="16.610000610351562"></rect> <rect height="1" y="3.9750003814697266" width="16.610000610351562" x="149.5"></rect> <g transform="translate(19.610000610351562,0)"><g transform="scale(1)"><path d="M0.89-8.58L2.06-8.58L2.06-1.03L6.42-1.03L6.42 0L0.89 0L0.89-8.58ZM13.22-3.19L13.22-8.58L14.39-8.58L14.39-3.05Q14.25 0.05 10.88 0.14L10.88 0.14Q7.73 0.05 7.59-2.86L7.59-2.86L7.59-8.58L8.77-8.58L8.77-3.19Q8.81-0.84 10.92-0.80L10.92-0.80Q13.22-0.84 13.22-3.19L13.22-3.19ZM22.97-4.27L22.97-4.27Q22.78-7.64 19.97-7.83L19.97-7.83Q17.11-7.69 16.97-4.27L16.97-4.27Q17.11-0.94 19.97-0.80L19.97-0.80Q22.78-0.98 22.97-4.27ZM24.14-4.27L24.14-4.27Q23.86 0 19.97 0.14L19.97 0.14Q16.03 0 15.75-4.27L15.75-4.27Q15.98-8.72 19.97-8.81L19.97-8.81Q23.86-8.67 24.14-4.27ZM32.44-8.58L29.20-3.47L29.20 0L28.03 0L28.03-3.47L24.80-8.58L26.16-8.58L28.59-4.45L31.08-8.58L32.44-8.58ZM39.14 0L38.30-2.48L34.83-2.48L33.94 0L32.77 0L36-8.58L37.31-8.58L40.41 0L39.14 0ZM36.56-7.31L35.20-3.52L37.88-3.52L36.61-7.31L36.56-7.31ZM42.84-8.58L47.16-1.64L47.16-8.58L48.28-8.58L48.28 0L46.97 0L42.61-6.94L42.56-6.94L42.56 0L41.44 0L41.44-8.58L42.84-8.58ZM56.48-3.61L53.86-3.61L53.86-4.59L57.61-4.59L57.61 0L56.86 0L56.58-1.08Q55.59 0.09 53.77 0.14L53.77 0.14Q52.03 0.14 51.09-0.75L51.09-0.75Q49.69-2.06 49.73-4.36L49.73-4.36Q50.06-8.63 53.81-8.81L53.81-8.81Q57-8.63 57.47-6L57.47-6L56.34-6Q55.88-7.78 53.77-7.83L53.77-7.83Q51.09-7.64 50.95-4.31L50.95-4.31Q50.95-0.75 53.81-0.75L53.81-0.75Q54.84-0.75 55.59-1.31L55.59-1.31Q56.53-2.06 56.48-3.61L56.48-3.61ZM63.56-1.03L68.86-1.03L68.86 0L62.11 0L62.11-0.94L67.36-7.59L62.48-7.59L62.48-8.58L68.86-8.58L68.86-7.59L63.56-1.03ZM71.16-5.06L75.66-5.06L75.66-8.58L76.83-8.58L76.83 0L75.66 0L75.66-3.98L71.16-3.98L71.16 0L69.98 0L69.98-8.58L71.16-8.58L71.16-5.06ZM84.28 0L83.44-2.48L79.97-2.48L79.08 0L77.91 0L81.14-8.58L82.45-8.58L85.55 0L84.28 0ZM81.70-7.31L80.34-3.52L83.02-3.52L81.75-7.31L81.70-7.31ZM86.77-8.58L87.94-8.58L87.94 0L86.77 0L86.77-8.58ZM96.19-6.09L96.19-6.09L95.11-6.09Q95.02-7.73 92.95-7.83L92.95-7.83Q91.03-7.78 91.03-6.33L91.03-6.33Q91.03-5.39 92.06-5.25L92.06-5.25L94.50-4.69Q96.42-4.22 96.42-2.34L96.42-2.34Q96.38 0.05 93.05 0.14L93.05 0.14Q91.22 0.14 90.47-0.61L90.47-0.61Q89.53-1.31 89.58-2.77L89.58-2.77L90.70-2.77Q90.75-0.80 93.05-0.75L93.05-0.75Q95.30-0.80 95.34-2.20L95.34-2.20Q95.53-3.38 93.47-3.75L93.47-3.75L91.69-4.13Q89.86-4.64 89.86-6.19L89.86-6.19Q90-8.72 92.86-8.81L92.86-8.81Q96.09-8.81 96.19-6.09ZM99.05-5.06L103.55-5.06L103.55-8.58L104.72-8.58L104.72 0L103.55 0L103.55-3.98L99.05-3.98L99.05 0L97.88 0L97.88-8.58L99.05-8.58L99.05-5.06ZM106.69-8.58L107.86-8.58L107.86 0L106.69 0L106.69-8.58ZM113.34 0L109.88 0L109.88-8.58L113.39-8.58Q116.86-8.39 117-4.41L117-4.41Q116.81-0.09 113.34 0L113.34 0ZM113.20-7.64L111.05-7.64L111.05-0.98L113.30-0.98Q115.73-1.13 115.83-4.31L115.83-4.31Q115.78-7.55 113.20-7.64L113.20-7.64ZM124.13 0L123.28-2.48L119.81-2.48L118.92 0L117.75 0L120.98-8.58L122.30-8.58L125.39 0L124.13 0ZM121.55-7.31L120.19-3.52L122.86-3.52L121.59-7.31L121.55-7.31ZM126.61-8.58L127.78-8.58L127.78 0L126.61 0L126.61-8.58Z" transform="translate(-0.890625, 8.8125)"></path></g></g></g></g></g><defs v-gra="od"></defs><defs v-gra="id"><filter id="00ad95d7-5f84-4f78-b541-54566cc16414" filterUnits="userSpaceOnUse"><feColorMatrix type="matrix" values="0 0 0 0 0.99609375  0 0 0 0 0.99609375  0 0 0 0 0.99609375  0 0 0 1 0"></feColorMatrix></filter><linearGradient x1="0" y1="1" x2="0" y2="0" id="thEV7w_VlUUUY97MkSbuh"><stop offset="0%" stop-color="#fc51fa"></stop><stop offset="50%" stop-color="#fdaf42"></stop><stop offset="100%" stop-color="#2cd4ff"></stop></linearGradient><filter id="42443b3f1de60f6b6fd3b6a9844b4764" filterUnits="objectBoundingBox"><feColorMatrix type="matrix" values="0 0 0 0 0.99609375  0 0 0 0 0.99609375  0 0 0 0 0.99609375  0 0 0 1 0"></feColorMatrix></filter></defs><mask v-gra="im" id="8867e9fb-4e31-4e14-8471-92893b050e6d"><g class="iconsvg-imagesvg" filter="url(#00ad95d7-5f84-4f78-b541-54566cc16414)"><g><rect fill="#0a0619" fill-opacity="0" stroke-width="2" x="0" y="0" width="60" height="58.00015466707911" class="image-rect"></rect> <svg x="0" y="0" width="60" height="58.00015466707911" filtersec="colorsf1506155152" class="image-svg-svg primary" style="overflow: visible;"><svg xmlns="http://www.w3.org/2000/svg" xmlns:xlink="http://www.w3.org/1999/xlink" version="1.1" x="0px" y="0px" viewBox="0 0 479.9990234375 464" xml:space="preserve"><g><path d="M167.878,351.999H168c0.001,0,0.004,0,0.005,0c9.873,0,19.689-1.375,29.181-4.087l83.081-23.737   c6.452-1.843,11.873-6.342,14.873-12.343l33.705-67.409l14.311,7.155l-16.794,33.588c6.397,17.542,9.638,35.895,9.638,54.612V352   h79.033c-6.174-47.921-23.472-94.236-50.287-134.458l-5.57-8.355C352.002,198.425,339.997,192,327.063,192   c-15.63,0-29.614,9.323-35.626,23.751l-29.385,70.523l-70.51,26.441l-12.363-6.182c-3.315-1.657-7.027-2.534-10.733-2.534h-0.484   C154.75,304,144,314.82,144,328.119C144,341.285,154.712,351.998,167.878,351.999z"></path><path d="M320,110.627C320,102.562,313.438,96,305.373,96c-3.907,0-7.581,1.521-10.343,4.284l-19.364,19.364l-8.178-32.711   c-1.021-4.084-4.674-6.937-8.884-6.937c-3.491,0-6.629,1.939-8.191,5.062l-16.222,32.443l-12.535-12.535   c-0.74-0.74-1.441-1.507-2.124-2.287c-4.938,5.168-8.778,11.277-11.302,18.036l8.16,48.959   C220.091,191.883,239.116,208,261.627,208c5.86,0,11.59-1.104,17.032-3.28l0.426-0.17c7.349-13.576,19.987-23.257,34.725-26.922   c-8.055-12.102-14.051-25.601-17.572-39.686l-1.796-7.187l14.547-4.849C315.575,123.709,320,117.57,320,110.627z"></path><path d="M112,398.111c0,6.55,2.985,12.557,8,16.475c5.015-3.918,8-9.925,8-16.475V240h-16V398.111z"></path><path d="M176.124,80c0.489-7.616,2.504-15.144,5.916-21.968l2.804-5.61l14.312,7.155l-2.805,5.61   C193.504,70.88,192,77.253,192,83.617c0,7.667,2.08,15.014,5.972,21.398c3.481-6.097,7.883-11.618,13.073-16.409   C209.053,83.372,208,77.768,208,72c0-12.455,4.85-24.164,13.657-32.97l4.687-4.687l11.313,11.313l-4.687,4.687   C227.186,56.128,224,63.819,224,72c0,6.632,2.093,12.942,5.968,18.175l6.134-12.269C240.392,69.329,249.014,64,258.604,64   c11.564,0,21.601,7.836,24.406,19.056l1.327,5.31C290.046,82.964,297.481,80,305.373,80C322.261,80,336,93.739,336,110.627   c0,13.84-8.821,26.079-21.951,30.456l-0.253,0.084c4.104,12.707,10.526,24.693,18.835,35.139c1.826,0.186,3.631,0.458,5.412,0.822   l7.607-53.248l17.417,8.708c3.277-12.353,4.934-25.058,4.934-37.887V80h12.734c-6.005-12.998-16.827-23.421-30.331-28.823   l-20.639-8.255l19.549-19.549C336.525,8.657,317.724,0,298.111,0h-0.223c-10.468,0-20.949,2.474-30.311,7.155l-2.964,1.482   L246.94,2.746C241.474,0.924,235.78,0,230.018,0c-20.4,0-38.741,11.335-47.864,29.582l-2.099,4.197   c-7.839,15.679-19.152,29.41-32.978,40.105c3.856,3.869,9.13,6.116,14.812,6.116H176.124z"></path><path d="M32,400c-8.822,0-16,7.178-16,16v40c0,4.411,3.589,8,8,8h24v-48C48,407.178,40.822,400,32,400z"></path><path d="M380.838,432H376c-13.234,0-24-10.766-24-24c0-16.688-9.272-31.692-24.199-39.156l-0.644-0.322l-146.313,39.904   C168.571,411.773,160,422.994,160,435.714C160,451.311,172.688,464,188.285,464c2.278,0,4.59-0.08,6.872-0.236l172.425-11.892   c8.345-0.576,16.299-3.112,23.346-7.388c-1.137-2.368-2.141-4.823-2.988-7.365C386.919,434.057,384.065,432,380.838,432z"></path><path d="M162.128,400h-18.193c-0.667,13.318-8.327,25.14-20.357,31.155L120,432.944l-3.578-1.789   c-12.03-6.015-19.69-17.837-20.357-31.155h-36.37C62.427,404.711,64,410.173,64,416v48h90.24   c-6.389-7.678-10.24-17.539-10.24-28.285C144,421.332,151.001,408.175,162.128,400z"></path><path d="M476.759,444.686c-26.771-8.924-44.759-33.88-44.759-62.1V376c0-4.411-3.589-8-8-8h-71.304   C362.412,378.762,368,392.871,368,408c0,4.411,3.589,8,8,8h4.838c10.125,0,19.08,6.454,22.281,16.06   c6.369,19.104,24.177,31.94,44.315,31.94c9.252,0,18.212-2.713,25.911-7.845l4.544-3.029c1.321-0.881,2.11-2.355,2.11-3.943   C480,447.139,478.697,445.332,476.759,444.686z"></path><path d="M80,326.833C80,314.243,69.757,304,57.167,304h-7.111C40.1,304,32,295.9,32,285.944c0-6.051,3.005-11.667,8.04-15.023   l29.436-19.624C76.066,246.904,80,239.553,80,231.633C80,218.602,69.398,208,56.367,208H24.971c-4.946,0-8.971-4.024-8.971-8.971   c0-2.396,0.933-4.649,2.627-6.343l3.029-3.029l-11.313-11.313l-3.029,3.029C2.598,186.089,0,192.359,0,199.029   C0,212.798,11.202,224,24.971,224h31.396c4.209,0,7.633,3.424,7.633,7.633c0,2.558-1.271,4.933-3.399,6.352l-29.436,19.624   C21.669,263.939,16,274.532,16,285.944C16,304.723,31.277,320,50.056,320h7.111c3.768,0,6.833,3.065,6.833,6.833   c0,2.604-1.447,4.946-3.777,6.111l-7.801,3.9l7.155,14.311l7.801-3.9C75.164,343.362,80,335.537,80,326.833z"></path><path d="M44.622,155.255l7.801,3.9l7.155-14.311l-7.8-3.9c-2.33-1.165-3.777-3.507-3.777-6.111c0-3.768,3.065-6.833,6.833-6.833   h46.571c5.843,0,10.596,4.753,10.596,10.597c0,4.568-2.912,8.608-7.246,10.053l-27.998,9.333C69.126,160.525,64,167.637,64,175.68   c0,8.576,5.811,16.019,14.131,18.099l8.407,2.102C92.109,197.273,96,202.257,96,208h16c0-13.099-8.875-24.465-21.582-27.642   l-8.406-2.102C80.827,177.961,80,176.901,80,175.68c0-1.145,0.729-2.157,1.816-2.52l27.998-9.333   C120.691,160.202,128,150.063,128,138.596C128,123.931,116.069,112,101.404,112H54.833C42.243,112,32,122.243,32,134.833   C32,143.537,36.836,151.362,44.622,155.255z"></path></g></svg></svg> <defs><filter id="colors753583455"><feColorMatrix type="matrix" values="0 0 0 0 0.0390625  0 0 0 0 0.0234375  0 0 0 0 0.09765625  0 0 0 1 0" class="icon-fecolormatrix"></feColorMatrix></filter> <filter id="colorsf1506155152"><feColorMatrix type="matrix" values="0 0 0 0 0.99609375  0 0 0 0 0.99609375  0 0 0 0 0.99609375  0 0 0 1 0" class="icon-fecolormatrix"></feColorMatrix></filter> <filter id="colorsb1866252543"><feColorMatrix type="matrix" values="0 0 0 0 0  0 0 0 0 0  0 0 0 0 0  0 0 0 1 0" class="icon-fecolormatrix"></feColorMatrix></filter></defs></g></g></mask></svg>